<?xml version="1.0" encoding="iso-8859-1"?>
<!-- Uploaded to: SVG Repo, www.svgrepo.com, Generator: SVG Repo Mixer Tools -->
<svg version="1.1" id="Layer_1" xmlns="http://www.w3.org/2000/svg" xmlns:xlink="http://www.w3.org/1999/xlink" 
	 viewBox="0 0 511.601 511.601" xml:space="preserve">
<path style="fill:#EAC6BB;" d="M372.571,23.576c-129.82-66.823-329.274,13.099-290.46,180.39L62.657,227.51l-34.379,62.935
	l33.442,26.59l-1.39,44.699l13.365,19.156c0,0-15.909,59.797,8.416,68.275c45.386,15.832,98.813,8.041,98.813,8.041l2.669,54.395
	h225.746c0,0-22.342-112.756,11.585-160.641C454.851,303.06,565.514,122.904,372.571,23.576z"/>
<path style="fill:#F6BB42;" d="M366.075,181.187c0,52.974-42.95,95.925-95.924,95.925c-52.975,0-95.926-42.952-95.926-95.925
	c0-52.975,42.951-95.925,95.926-95.925C323.125,85.262,366.075,128.213,366.075,181.187z"/>
<path style="fill:#FFCE54;" d="M302.126,181.187c0-5.886-4.762-10.648-10.648-10.648c-2.951,0-5.62,1.187-7.541,3.123
	l-13.785,13.771l-13.771-13.771c-1.92-1.937-4.59-3.123-7.541-3.123c-5.886,0-10.664,4.762-10.664,10.648
	c0,2.95,1.202,5.604,3.123,7.541l18.205,18.188v59.547h21.312v-59.547l18.188-18.188
	C300.94,186.807,302.126,184.137,302.126,181.187z"/>
<path style="fill:#434A54;" d="M280.815,330.413c0,5.887-4.778,10.648-10.663,10.648c-5.887,0-10.648-4.762-10.648-10.648
	c0-5.885,4.762-10.662,10.648-10.662C276.036,319.751,280.815,324.529,280.815,330.413z"/>
<rect x="227.53" y="266.46" style="fill:#E6E9ED;" width="85.26" height="63.949"/>
<g>
	<path style="fill:#CCD1D9;" d="M303.391,277.191c-0.422-0.047-0.843-0.078-1.265-0.078c-5.887,0-10.648,4.777-10.648,10.664
		c0,5.885,4.762,10.662,10.648,10.662h10.664v-21.248H303.391z"/>
	<path style="fill:#CCD1D9;" d="M303.391,298.517c-0.422-0.047-0.843-0.078-1.265-0.078c-5.887,0-10.648,4.762-10.648,10.648
		s4.762,10.664,10.648,10.664h10.664v-21.234H303.391z"/>
	<path style="fill:#CCD1D9;" d="M236.927,319.673c0.406,0.047,0.828,0.078,1.249,0.078c5.886,0,10.664-4.777,10.664-10.664
		s-4.777-10.648-10.664-10.648h-10.648v21.234H236.927z"/>
	<path style="fill:#CCD1D9;" d="M236.927,298.345c0.406,0.047,0.828,0.094,1.249,0.094c5.886,0,10.664-4.777,10.664-10.662
		c0-5.887-4.777-10.664-10.664-10.664h-10.648v21.232H236.927z"/>
</g>
</svg>